<svg width="148" height="25" viewBox="0 0 148 25" fill="none" xmlns="http://www.w3.org/2000/svg">
<path d="M25.1111 15.63L24.3311 17.625C24.2411 17.875 24.0461 18 23.7461 18H23.1911C23.1011 18 23.0211 17.97 22.9511 17.91C22.8911 17.84 22.8611 17.76 22.8611 17.67C22.8611 17.62 22.8811 17.55 22.9211 17.46L26.5961 7.995C26.7261 7.665 26.9511 7.5 27.2711 7.5H28.1711C28.4911 7.5 28.7161 7.665 28.8461 7.995L32.5061 17.46C32.5461 17.55 32.5661 17.62 32.5661 17.67C32.5661 17.76 32.5311 17.84 32.4611 17.91C32.4011 17.97 32.3261 18 32.2361 18H31.6811C31.3811 18 31.1861 17.875 31.0961 17.625L30.3161 15.63H25.1111ZM29.7911 14.28L27.7211 8.925L25.6361 14.28H29.7911ZM39.2964 7.755C39.2964 7.645 39.3364 7.55 39.4164 7.47C39.4964 7.39 39.5914 7.35 39.7014 7.35H40.2564C40.3664 7.35 40.4614 7.39 40.5414 7.47C40.6214 7.55 40.6614 7.645 40.6614 7.755V17.595C40.6614 17.705 40.6214 17.8 40.5414 17.88C40.4614 17.96 40.3664 18 40.2564 18H39.7014C39.5914 18 39.4964 17.96 39.4164 17.88C39.3364 17.8 39.2964 17.705 39.2964 17.595V17.13C38.7864 17.81 38.0114 18.15 36.9714 18.15C36.3514 18.15 35.7864 18.005 35.2764 17.715C34.7764 17.425 34.3714 17.01 34.0614 16.47C33.7614 15.93 33.5964 15.3 33.5664 14.58L33.5514 14.085L33.5664 13.605C33.5964 12.885 33.7614 12.26 34.0614 11.73C34.3714 11.19 34.7764 10.775 35.2764 10.485C35.7764 10.195 36.3414 10.05 36.9714 10.05C37.5314 10.05 38.0014 10.15 38.3814 10.35C38.7714 10.54 39.0764 10.78 39.2964 11.07V7.755ZM39.2964 13.56C39.2664 12.86 39.0564 12.315 38.6664 11.925C38.2764 11.535 37.7614 11.34 37.1214 11.34C36.4714 11.34 35.9514 11.55 35.5614 11.97C35.1814 12.39 34.9714 12.96 34.9314 13.68L34.9164 14.1L34.9314 14.52C34.9714 15.24 35.1814 15.81 35.5614 16.23C35.9514 16.65 36.4714 16.86 37.1214 16.86C37.7414 16.86 38.2514 16.67 38.6514 16.29C39.0514 15.9 39.2664 15.385 39.2964 14.745C39.3064 14.645 39.3114 14.445 39.3114 14.145C39.3114 13.855 39.3064 13.66 39.2964 13.56ZM48.2613 7.755C48.2613 7.645 48.3013 7.55 48.3813 7.47C48.4613 7.39 48.5563 7.35 48.6663 7.35H49.2213C49.3313 7.35 49.4263 7.39 49.5063 7.47C49.5863 7.55 49.6263 7.645 49.6263 7.755V17.595C49.6263 17.705 49.5863 17.8 49.5063 17.88C49.4263 17.96 49.3313 18 49.2213 18H48.6663C48.5563 18 48.4613 17.96 48.3813 17.88C48.3013 17.8 48.2613 17.705 48.2613 17.595V17.13C47.7513 17.81 46.9763 18.15 45.9363 18.15C45.3163 18.15 44.7513 18.005 44.2413 17.715C43.7413 17.425 43.3363 17.01 43.0263 16.47C42.7263 15.93 42.5613 15.3 42.5313 14.58L42.5163 14.085L42.5313 13.605C42.5613 12.885 42.7263 12.26 43.0263 11.73C43.3363 11.19 43.7413 10.775 44.2413 10.485C44.7413 10.195 45.3063 10.05 45.9363 10.05C46.4963 10.05 46.9663 10.15 47.3463 10.35C47.7363 10.54 48.0413 10.78 48.2613 11.07V7.755ZM48.2613 13.56C48.2313 12.86 48.0213 12.315 47.6313 11.925C47.2413 11.535 46.7263 11.34 46.0863 11.34C45.4363 11.34 44.9163 11.55 44.5263 11.97C44.1463 12.39 43.9363 12.96 43.8963 13.68L43.8813 14.1L43.8963 14.52C43.9363 15.24 44.1463 15.81 44.5263 16.23C44.9163 16.65 45.4363 16.86 46.0863 16.86C46.7063 16.86 47.2163 16.67 47.6163 16.29C48.0163 15.9 48.2313 15.385 48.2613 14.745C48.2713 14.645 48.2763 14.445 48.2763 14.145C48.2763 13.855 48.2713 13.66 48.2613 13.56ZM60.1682 13.065V12.87C60.1682 12.38 60.0032 12.005 59.6732 11.745C59.3532 11.475 58.9332 11.34 58.4132 11.34C58.0132 11.34 57.6982 11.41 57.4682 11.55C57.2482 11.68 57.0382 11.88 56.8382 12.15C56.7782 12.23 56.7132 12.285 56.6432 12.315C56.5732 12.345 56.4782 12.36 56.3582 12.36H55.9082C55.7982 12.36 55.6982 12.32 55.6082 12.24C55.5282 12.16 55.4932 12.065 55.5032 11.955C55.5332 11.655 55.6782 11.36 55.9382 11.07C56.2082 10.77 56.5632 10.525 57.0032 10.335C57.4432 10.145 57.9132 10.05 58.4132 10.05C59.3432 10.05 60.0932 10.31 60.6632 10.83C61.2432 11.35 61.5332 12.08 61.5332 13.02V17.595C61.5332 17.705 61.4932 17.8 61.4132 17.88C61.3332 17.96 61.2382 18 61.1282 18H60.5732C60.4632 18 60.3682 17.96 60.2882 17.88C60.2082 17.8 60.1682 17.705 60.1682 17.595V16.98C60.0082 17.34 59.6682 17.625 59.1482 17.835C58.6282 18.045 58.1082 18.15 57.5882 18.15C57.0782 18.15 56.6232 18.06 56.2232 17.88C55.8232 17.69 55.5132 17.435 55.2932 17.115C55.0832 16.795 54.9782 16.435 54.9782 16.035C54.9782 15.285 55.2582 14.7 55.8182 14.28C56.3782 13.85 57.1232 13.56 58.0532 13.41L60.1682 13.065ZM60.1682 14.265L58.3982 14.55C57.7482 14.65 57.2432 14.815 56.8832 15.045C56.5232 15.265 56.3432 15.545 56.3432 15.885C56.3432 16.135 56.4582 16.36 56.6882 16.56C56.9182 16.76 57.2682 16.86 57.7382 16.86C58.4582 16.86 59.0432 16.655 59.4932 16.245C59.9432 15.835 60.1682 15.3 60.1682 14.64V14.265ZM70.6517 17.595C70.6517 17.705 70.6117 17.8 70.5317 17.88C70.4517 17.96 70.3567 18 70.2467 18H69.6917C69.5817 18 69.4867 17.96 69.4067 17.88C69.3267 17.8 69.2867 17.705 69.2867 17.595V13.635C69.2867 12.885 69.1017 12.315 68.7317 11.925C68.3617 11.535 67.8467 11.34 67.1867 11.34C66.5367 11.34 66.0217 11.535 65.6417 11.925C65.2717 12.315 65.0867 12.885 65.0867 13.635V17.595C65.0867 17.705 65.0467 17.8 64.9667 17.88C64.8867 17.96 64.7917 18 64.6817 18H64.1267C64.0167 18 63.9217 17.96 63.8417 17.88C63.7617 17.8 63.7217 17.705 63.7217 17.595V10.605C63.7217 10.495 63.7617 10.4 63.8417 10.32C63.9217 10.24 64.0167 10.2 64.1267 10.2H64.6817C64.7917 10.2 64.8867 10.24 64.9667 10.32C65.0467 10.4 65.0867 10.495 65.0867 10.605V11.07C65.3067 10.78 65.6067 10.54 65.9867 10.35C66.3767 10.15 66.8517 10.05 67.4117 10.05C68.0417 10.05 68.6017 10.185 69.0917 10.455C69.5817 10.725 69.9617 11.115 70.2317 11.625C70.5117 12.125 70.6517 12.72 70.6517 13.41V17.595ZM79.583 13.395C79.603 13.615 79.613 13.855 79.613 14.115C79.613 14.355 79.603 14.585 79.583 14.805C79.493 15.825 79.138 16.64 78.518 17.25C77.908 17.85 77.078 18.15 76.028 18.15C74.978 18.15 74.143 17.85 73.523 17.25C72.913 16.64 72.563 15.825 72.473 14.805C72.463 14.695 72.458 14.465 72.458 14.115C72.458 13.745 72.463 13.505 72.473 13.395C72.553 12.375 72.903 11.565 73.523 10.965C74.143 10.355 74.978 10.05 76.028 10.05C77.078 10.05 77.913 10.355 78.533 10.965C79.153 11.565 79.503 12.375 79.583 13.395ZM78.218 13.47C78.158 12.83 77.943 12.315 77.573 11.925C77.213 11.535 76.698 11.34 76.028 11.34C75.358 11.34 74.838 11.535 74.468 11.925C74.108 12.315 73.898 12.83 73.838 13.47C73.828 13.59 73.823 13.805 73.823 14.115C73.823 14.415 73.828 14.62 73.838 14.73C73.898 15.37 74.108 15.885 74.468 16.275C74.838 16.665 75.358 16.86 76.028 16.86C76.698 16.86 77.213 16.665 77.573 16.275C77.943 15.885 78.158 15.37 78.218 14.73C78.238 14.51 78.248 14.305 78.248 14.115C78.248 13.925 78.238 13.71 78.218 13.47ZM83.5302 15.375C83.5302 15.805 83.6152 16.135 83.7852 16.365C83.9652 16.595 84.3002 16.71 84.7902 16.71H85.5852C85.6952 16.71 85.7902 16.75 85.8702 16.83C85.9502 16.91 85.9902 17.005 85.9902 17.115V17.595C85.9902 17.705 85.9502 17.8 85.8702 17.88C85.7902 17.96 85.6952 18 85.5852 18H84.6402C83.7902 18 83.1652 17.78 82.7652 17.34C82.3652 16.89 82.1652 16.235 82.1652 15.375V11.49H81.0552C80.9452 11.49 80.8502 11.45 80.7702 11.37C80.6902 11.29 80.6502 11.195 80.6502 11.085V10.605C80.6502 10.495 80.6902 10.4 80.7702 10.32C80.8502 10.24 80.9452 10.2 81.0552 10.2H82.1652V7.755C82.1652 7.645 82.2052 7.55 82.2852 7.47C82.3652 7.39 82.4602 7.35 82.5702 7.35H83.1252C83.2352 7.35 83.3302 7.39 83.4102 7.47C83.4902 7.55 83.5302 7.645 83.5302 7.755V10.2H85.4352C85.5452 10.2 85.6402 10.24 85.7202 10.32C85.8002 10.4 85.8402 10.495 85.8402 10.605V11.085C85.8402 11.195 85.8002 11.29 85.7202 11.37C85.6402 11.45 85.5452 11.49 85.4352 11.49H83.5302V15.375ZM94.4261 17.595C94.4261 17.705 94.3861 17.8 94.3061 17.88C94.2261 17.96 94.1311 18 94.0211 18H93.4661C93.3561 18 93.2611 17.96 93.1811 17.88C93.1011 17.8 93.0611 17.705 93.0611 17.595V13.635C93.0611 12.885 92.8761 12.315 92.5061 11.925C92.1361 11.535 91.6211 11.34 90.9611 11.34C90.3111 11.34 89.7961 11.535 89.4161 11.925C89.0461 12.315 88.8611 12.885 88.8611 13.635V17.595C88.8611 17.705 88.8211 17.8 88.7411 17.88C88.6611 17.96 88.5661 18 88.4561 18H87.9011C87.7911 18 87.6961 17.96 87.6161 17.88C87.5361 17.8 87.4961 17.705 87.4961 17.595V7.755C87.4961 7.645 87.5361 7.55 87.6161 7.47C87.6961 7.39 87.7911 7.35 87.9011 7.35H88.4561C88.5661 7.35 88.6611 7.39 88.7411 7.47C88.8211 7.55 88.8611 7.645 88.8611 7.755V11.07C89.0811 10.78 89.3811 10.54 89.7611 10.35C90.1511 10.15 90.6261 10.05 91.1861 10.05C91.8161 10.05 92.3761 10.185 92.8661 10.455C93.3561 10.725 93.7361 11.115 94.0061 11.625C94.2861 12.125 94.4261 12.72 94.4261 13.41V17.595ZM99.6824 10.05C100.752 10.05 101.597 10.39 102.217 11.07C102.837 11.75 103.147 12.675 103.147 13.845V14.25C103.147 14.36 103.107 14.455 103.027 14.535C102.947 14.615 102.852 14.655 102.742 14.655H97.5824V14.745C97.6024 15.405 97.8024 15.925 98.1824 16.305C98.5724 16.675 99.0724 16.86 99.6824 16.86C100.182 16.86 100.567 16.795 100.837 16.665C101.117 16.535 101.367 16.35 101.587 16.11C101.667 16.03 101.737 15.975 101.797 15.945C101.867 15.915 101.957 15.9 102.067 15.9H102.517C102.637 15.9 102.737 15.94 102.817 16.02C102.897 16.1 102.932 16.195 102.922 16.305C102.882 16.575 102.732 16.855 102.472 17.145C102.222 17.425 101.857 17.665 101.377 17.865C100.907 18.055 100.342 18.15 99.6824 18.15C99.0424 18.15 98.4724 18.005 97.9724 17.715C97.4724 17.415 97.0724 17.005 96.7724 16.485C96.4824 15.965 96.3074 15.38 96.2474 14.73C96.2274 14.43 96.2174 14.2 96.2174 14.04C96.2174 13.88 96.2274 13.65 96.2474 13.35C96.3074 12.73 96.4824 12.17 96.7724 11.67C97.0724 11.17 97.4674 10.775 97.9574 10.485C98.4574 10.195 99.0324 10.05 99.6824 10.05ZM101.797 13.395V13.35C101.797 12.74 101.602 12.255 101.212 11.895C100.832 11.525 100.322 11.34 99.6824 11.34C99.1024 11.34 98.6074 11.525 98.1974 11.895C97.7974 12.265 97.5924 12.75 97.5824 13.35V13.395H101.797ZM108.917 10.2C109.027 10.2 109.122 10.24 109.202 10.32C109.282 10.4 109.322 10.495 109.322 10.605V11.085C109.322 11.195 109.282 11.29 109.202 11.37C109.122 11.45 109.027 11.49 108.917 11.49H108.047C107.487 11.49 107.057 11.64 106.757 11.94C106.467 12.23 106.322 12.655 106.322 13.215V17.595C106.322 17.705 106.282 17.8 106.202 17.88C106.122 17.96 106.027 18 105.917 18H105.362C105.252 18 105.157 17.96 105.077 17.88C104.997 17.8 104.957 17.705 104.957 17.595V10.605C104.957 10.495 104.997 10.4 105.077 10.32C105.157 10.24 105.252 10.2 105.362 10.2H105.917C106.027 10.2 106.122 10.24 106.202 10.32C106.282 10.4 106.322 10.495 106.322 10.605V11.07C106.522 10.77 106.762 10.55 107.042 10.41C107.322 10.27 107.687 10.2 108.137 10.2H108.917ZM116.163 14.535C114.703 14.225 113.973 13.48 113.973 12.3C113.973 11.89 114.083 11.515 114.303 11.175C114.523 10.835 114.848 10.565 115.278 10.365C115.718 10.155 116.253 10.05 116.883 10.05C117.503 10.05 118.038 10.14 118.488 10.32C118.938 10.5 119.278 10.725 119.508 10.995C119.748 11.265 119.868 11.525 119.868 11.775C119.868 11.875 119.828 11.965 119.748 12.045C119.668 12.115 119.573 12.15 119.463 12.15H118.968C118.778 12.15 118.628 12.08 118.518 11.94C118.208 11.54 117.663 11.34 116.883 11.34C116.423 11.34 116.048 11.425 115.758 11.595C115.478 11.765 115.338 12 115.338 12.3C115.338 12.55 115.408 12.74 115.548 12.87C115.688 13 115.898 13.105 116.178 13.185C116.458 13.265 116.953 13.385 117.663 13.545C118.543 13.735 119.168 14.025 119.538 14.415C119.908 14.805 120.093 15.28 120.093 15.84C120.093 16.25 119.963 16.63 119.703 16.98C119.453 17.33 119.088 17.615 118.608 17.835C118.138 18.045 117.588 18.15 116.958 18.15C116.338 18.15 115.788 18.055 115.308 17.865C114.838 17.665 114.473 17.425 114.213 17.145C113.953 16.865 113.823 16.6 113.823 16.35C113.823 16.25 113.863 16.165 113.943 16.095C114.023 16.015 114.118 15.975 114.228 15.975H114.768C114.858 15.975 114.938 15.985 115.008 16.005C115.078 16.025 115.143 16.08 115.203 16.17C115.533 16.63 116.118 16.86 116.958 16.86C117.428 16.86 117.838 16.765 118.188 16.575C118.548 16.375 118.728 16.13 118.728 15.84C118.728 15.6 118.638 15.41 118.458 15.27C118.288 15.12 118.038 15 117.708 14.91C117.378 14.81 116.863 14.685 116.163 14.535ZM123.916 15.375C123.916 15.805 124.001 16.135 124.171 16.365C124.351 16.595 124.686 16.71 125.176 16.71H125.971C126.081 16.71 126.176 16.75 126.256 16.83C126.336 16.91 126.376 17.005 126.376 17.115V17.595C126.376 17.705 126.336 17.8 126.256 17.88C126.176 17.96 126.081 18 125.971 18H125.026C124.176 18 123.551 17.78 123.151 17.34C122.751 16.89 122.551 16.235 122.551 15.375V11.49H121.441C121.331 11.49 121.236 11.45 121.156 11.37C121.076 11.29 121.036 11.195 121.036 11.085V10.605C121.036 10.495 121.076 10.4 121.156 10.32C121.236 10.24 121.331 10.2 121.441 10.2H122.551V7.755C122.551 7.645 122.591 7.55 122.671 7.47C122.751 7.39 122.846 7.35 122.956 7.35H123.511C123.621 7.35 123.716 7.39 123.796 7.47C123.876 7.55 123.916 7.645 123.916 7.755V10.2H125.821C125.931 10.2 126.026 10.24 126.106 10.32C126.186 10.4 126.226 10.495 126.226 10.605V11.085C126.226 11.195 126.186 11.29 126.106 11.37C126.026 11.45 125.931 11.49 125.821 11.49H123.916V15.375ZM134.632 13.395C134.652 13.615 134.662 13.855 134.662 14.115C134.662 14.355 134.652 14.585 134.632 14.805C134.542 15.825 134.187 16.64 133.567 17.25C132.957 17.85 132.127 18.15 131.077 18.15C130.027 18.15 129.192 17.85 128.572 17.25C127.962 16.64 127.612 15.825 127.522 14.805C127.512 14.695 127.507 14.465 127.507 14.115C127.507 13.745 127.512 13.505 127.522 13.395C127.602 12.375 127.952 11.565 128.572 10.965C129.192 10.355 130.027 10.05 131.077 10.05C132.127 10.05 132.962 10.355 133.582 10.965C134.202 11.565 134.552 12.375 134.632 13.395ZM133.267 13.47C133.207 12.83 132.992 12.315 132.622 11.925C132.262 11.535 131.747 11.34 131.077 11.34C130.407 11.34 129.887 11.535 129.517 11.925C129.157 12.315 128.947 12.83 128.887 13.47C128.877 13.59 128.872 13.805 128.872 14.115C128.872 14.415 128.877 14.62 128.887 14.73C128.947 15.37 129.157 15.885 129.517 16.275C129.887 16.665 130.407 16.86 131.077 16.86C131.747 16.86 132.262 16.665 132.622 16.275C132.992 15.885 133.207 15.37 133.267 14.73C133.287 14.51 133.297 14.305 133.297 14.115C133.297 13.925 133.287 13.71 133.267 13.47ZM137.904 20.445C137.904 20.555 137.864 20.65 137.784 20.73C137.704 20.81 137.609 20.85 137.499 20.85H136.944C136.834 20.85 136.739 20.81 136.659 20.73C136.579 20.65 136.539 20.555 136.539 20.445V10.605C136.539 10.495 136.579 10.4 136.659 10.32C136.739 10.24 136.834 10.2 136.944 10.2H137.499C137.609 10.2 137.704 10.24 137.784 10.32C137.864 10.4 137.904 10.495 137.904 10.605V11.07C138.414 10.39 139.189 10.05 140.229 10.05C140.849 10.05 141.409 10.195 141.909 10.485C142.419 10.775 142.824 11.19 143.124 11.73C143.434 12.27 143.604 12.9 143.634 13.62C143.644 13.72 143.649 13.88 143.649 14.1C143.649 14.33 143.644 14.495 143.634 14.595C143.604 15.315 143.434 15.945 143.124 16.485C142.824 17.015 142.424 17.425 141.924 17.715C141.424 18.005 140.859 18.15 140.229 18.15C139.669 18.15 139.194 18.055 138.804 17.865C138.424 17.665 138.124 17.42 137.904 17.13V20.445ZM137.904 14.64C137.934 15.34 138.144 15.885 138.534 16.275C138.924 16.665 139.439 16.86 140.079 16.86C140.729 16.86 141.244 16.65 141.624 16.23C142.014 15.81 142.229 15.24 142.269 14.52C142.279 14.42 142.284 14.28 142.284 14.1C142.284 13.92 142.279 13.78 142.269 13.68C142.229 12.96 142.014 12.39 141.624 11.97C141.244 11.55 140.729 11.34 140.079 11.34C139.459 11.34 138.949 11.535 138.549 11.925C138.149 12.305 137.934 12.815 137.904 13.455L137.889 14.04L137.904 14.64Z" fill="#2E2E2E"/>
<path d="M9 6.25C12.7125 6.25 15.75 9.2875 15.75 13C15.75 16.7125 12.7125 19.75 9 19.75C5.2875 19.75 2.25 16.7125 2.25 13C2.25 9.2875 5.2875 6.25 9 6.25ZM9 5.125C4.66875 5.125 1.125 8.66875 1.125 13C1.125 17.3313 4.66875 20.875 9 20.875C13.3313 20.875 16.875 17.3313 16.875 13C16.875 8.66875 13.3313 5.125 9 5.125Z" fill="#2E2E2E"/>
<path d="M13.5 12.4375H9.5625V8.5H8.4375V12.4375H4.5V13.5625H8.4375V17.5H9.5625V13.5625H13.5V12.4375Z" fill="#2E2E2E"/>
</svg>
